<mxfile host="app.diagrams.net" modified="2022-10-14T21:43:24.174Z" agent="5.0 (Windows NT 10.0; Win64; x64) AppleWebKit/537.36 (KHTML, like Gecko) Chrome/106.0.0.0 Safari/537.36" etag="zLnQatc_TEzzD4voW8Ig" version="20.4.0" type="github">
  <diagram id="Dr2x7XwVAnWAEyWrlXYZ" name="Страница 1">
    <mxGraphModel dx="260" dy="433" grid="1" gridSize="10" guides="1" tooltips="1" connect="1" arrows="1" fold="1" page="1" pageScale="1" pageWidth="827" pageHeight="1169" math="0" shadow="0">
      <root>
        <mxCell id="0" />
        <mxCell id="1" parent="0" />
        <mxCell id="Jb1I6QxxHUKZY7F4_cGY-1" value="    Person" style="swimlane;fontStyle=1;align=center;verticalAlign=top;childLayout=stackLayout;horizontal=1;startSize=26;horizontalStack=0;resizeParent=1;resizeParentMax=0;resizeLast=0;collapsible=1;marginBottom=0;" vertex="1" parent="1">
          <mxGeometry x="180" y="70" width="190" height="160" as="geometry" />
        </mxCell>
        <mxCell id="Jb1I6QxxHUKZY7F4_cGY-2" value="#name: String&#xa;#last_name: String&#xa;#full_name: String&#xa;#age: Int&#xa;#MINIMAL_AGE: Int" style="text;strokeColor=none;fillColor=none;align=left;verticalAlign=top;spacingLeft=4;spacingRight=4;overflow=hidden;rotatable=0;points=[[0,0.5],[1,0.5]];portConstraint=eastwest;" vertex="1" parent="Jb1I6QxxHUKZY7F4_cGY-1">
          <mxGeometry y="26" width="190" height="84" as="geometry" />
        </mxCell>
        <mxCell id="Jb1I6QxxHUKZY7F4_cGY-3" value="" style="line;strokeWidth=1;fillColor=none;align=left;verticalAlign=middle;spacingTop=-1;spacingLeft=3;spacingRight=3;rotatable=0;labelPosition=right;points=[];portConstraint=eastwest;strokeColor=inherit;" vertex="1" parent="Jb1I6QxxHUKZY7F4_cGY-1">
          <mxGeometry y="110" width="190" height="8" as="geometry" />
        </mxCell>
        <mxCell id="Jb1I6QxxHUKZY7F4_cGY-4" value="+ Person(protected): constructor&#xa;+status(public):virtual, string" style="text;strokeColor=none;fillColor=none;align=left;verticalAlign=top;spacingLeft=4;spacingRight=4;overflow=hidden;rotatable=0;points=[[0,0.5],[1,0.5]];portConstraint=eastwest;" vertex="1" parent="Jb1I6QxxHUKZY7F4_cGY-1">
          <mxGeometry y="118" width="190" height="42" as="geometry" />
        </mxCell>
        <mxCell id="Jb1I6QxxHUKZY7F4_cGY-13" style="edgeStyle=orthogonalEdgeStyle;rounded=0;orthogonalLoop=1;jettySize=auto;html=1;exitX=0.5;exitY=0;exitDx=0;exitDy=0;entryX=0.507;entryY=1.139;entryDx=0;entryDy=0;entryPerimeter=0;endArrow=block;endFill=0;" edge="1" parent="1" source="Jb1I6QxxHUKZY7F4_cGY-5" target="Jb1I6QxxHUKZY7F4_cGY-4">
          <mxGeometry relative="1" as="geometry">
            <Array as="points">
              <mxPoint x="165" y="250" />
              <mxPoint x="276" y="250" />
            </Array>
          </mxGeometry>
        </mxCell>
        <mxCell id="Jb1I6QxxHUKZY7F4_cGY-5" value="    Person" style="swimlane;fontStyle=1;align=center;verticalAlign=top;childLayout=stackLayout;horizontal=1;startSize=26;horizontalStack=0;resizeParent=1;resizeParentMax=0;resizeLast=0;collapsible=1;marginBottom=0;" vertex="1" parent="1">
          <mxGeometry x="70" y="300" width="190" height="160" as="geometry" />
        </mxCell>
        <mxCell id="Jb1I6QxxHUKZY7F4_cGY-6" value="+&#xa;#name&#xa;#last_name&#xa;#full_name&#xa;#age&#xa;" style="text;strokeColor=none;fillColor=none;align=left;verticalAlign=top;spacingLeft=4;spacingRight=4;overflow=hidden;rotatable=0;points=[[0,0.5],[1,0.5]];portConstraint=eastwest;" vertex="1" parent="Jb1I6QxxHUKZY7F4_cGY-5">
          <mxGeometry y="26" width="190" height="84" as="geometry" />
        </mxCell>
        <mxCell id="Jb1I6QxxHUKZY7F4_cGY-7" value="" style="line;strokeWidth=1;fillColor=none;align=left;verticalAlign=middle;spacingTop=-1;spacingLeft=3;spacingRight=3;rotatable=0;labelPosition=right;points=[];portConstraint=eastwest;strokeColor=inherit;" vertex="1" parent="Jb1I6QxxHUKZY7F4_cGY-5">
          <mxGeometry y="110" width="190" height="8" as="geometry" />
        </mxCell>
        <mxCell id="Jb1I6QxxHUKZY7F4_cGY-8" value="+ Person(protected): constructor&#xa;+status(public):virtual, string" style="text;strokeColor=none;fillColor=none;align=left;verticalAlign=top;spacingLeft=4;spacingRight=4;overflow=hidden;rotatable=0;points=[[0,0.5],[1,0.5]];portConstraint=eastwest;" vertex="1" parent="Jb1I6QxxHUKZY7F4_cGY-5">
          <mxGeometry y="118" width="190" height="42" as="geometry" />
        </mxCell>
        <mxCell id="Jb1I6QxxHUKZY7F4_cGY-14" style="edgeStyle=orthogonalEdgeStyle;rounded=0;orthogonalLoop=1;jettySize=auto;html=1;exitX=0.5;exitY=0;exitDx=0;exitDy=0;entryX=0.507;entryY=1.139;entryDx=0;entryDy=0;entryPerimeter=0;endArrow=block;endFill=0;" edge="1" parent="1" source="Jb1I6QxxHUKZY7F4_cGY-9" target="Jb1I6QxxHUKZY7F4_cGY-4">
          <mxGeometry relative="1" as="geometry">
            <Array as="points">
              <mxPoint x="414" y="250" />
              <mxPoint x="276" y="250" />
            </Array>
          </mxGeometry>
        </mxCell>
        <mxCell id="Jb1I6QxxHUKZY7F4_cGY-9" value="    Person" style="swimlane;fontStyle=1;align=center;verticalAlign=top;childLayout=stackLayout;horizontal=1;startSize=26;horizontalStack=0;resizeParent=1;resizeParentMax=0;resizeLast=0;collapsible=1;marginBottom=0;" vertex="1" parent="1">
          <mxGeometry x="319" y="300" width="190" height="160" as="geometry" />
        </mxCell>
        <mxCell id="Jb1I6QxxHUKZY7F4_cGY-10" value="+&#xa;#name&#xa;#last_name&#xa;#full_name&#xa;#age&#xa;" style="text;strokeColor=none;fillColor=none;align=left;verticalAlign=top;spacingLeft=4;spacingRight=4;overflow=hidden;rotatable=0;points=[[0,0.5],[1,0.5]];portConstraint=eastwest;" vertex="1" parent="Jb1I6QxxHUKZY7F4_cGY-9">
          <mxGeometry y="26" width="190" height="84" as="geometry" />
        </mxCell>
        <mxCell id="Jb1I6QxxHUKZY7F4_cGY-11" value="" style="line;strokeWidth=1;fillColor=none;align=left;verticalAlign=middle;spacingTop=-1;spacingLeft=3;spacingRight=3;rotatable=0;labelPosition=right;points=[];portConstraint=eastwest;strokeColor=inherit;" vertex="1" parent="Jb1I6QxxHUKZY7F4_cGY-9">
          <mxGeometry y="110" width="190" height="8" as="geometry" />
        </mxCell>
        <mxCell id="Jb1I6QxxHUKZY7F4_cGY-12" value="+ Person(protected): constructor&#xa;+status(public):virtual, string" style="text;strokeColor=none;fillColor=none;align=left;verticalAlign=top;spacingLeft=4;spacingRight=4;overflow=hidden;rotatable=0;points=[[0,0.5],[1,0.5]];portConstraint=eastwest;" vertex="1" parent="Jb1I6QxxHUKZY7F4_cGY-9">
          <mxGeometry y="118" width="190" height="42" as="geometry" />
        </mxCell>
      </root>
    </mxGraphModel>
  </diagram>
</mxfile>
